<mxfile host="65bd71144e">
    <diagram id="bWEeatQy_bqJM8DSeHig" name="Desktop">
        <mxGraphModel dx="603" dy="114" grid="1" gridSize="10" guides="1" tooltips="1" connect="1" arrows="1" fold="1" page="1" pageScale="1" pageWidth="827" pageHeight="1169" math="0" shadow="0">
            <root>
                <mxCell id="0"/>
                <mxCell id="1" parent="0"/>
                <mxCell id="2" value="" style="rounded=0;whiteSpace=wrap;html=1;" vertex="1" parent="1">
                    <mxGeometry x="40" y="40" width="660" height="480" as="geometry"/>
                </mxCell>
                <mxCell id="4" value="" style="rounded=0;whiteSpace=wrap;html=1;" vertex="1" parent="1">
                    <mxGeometry x="40" y="40" width="660" height="60" as="geometry"/>
                </mxCell>
                <mxCell id="3" value="App" style="text;html=1;strokeColor=none;fillColor=none;align=center;verticalAlign=middle;whiteSpace=wrap;rounded=0;" vertex="1" parent="1">
                    <mxGeometry x="20" y="10" width="60" height="30" as="geometry"/>
                </mxCell>
                <mxCell id="5" value="header" style="text;html=1;strokeColor=none;fillColor=none;align=center;verticalAlign=middle;whiteSpace=wrap;rounded=0;" vertex="1" parent="1">
                    <mxGeometry x="40" y="40" width="60" height="30" as="geometry"/>
                </mxCell>
                <mxCell id="6" value="Footer" style="rounded=0;whiteSpace=wrap;html=1;" vertex="1" parent="1">
                    <mxGeometry x="40" y="460" width="660" height="60" as="geometry"/>
                </mxCell>
                <mxCell id="7" value="logo" style="whiteSpace=wrap;html=1;aspect=fixed;" vertex="1" parent="1">
                    <mxGeometry x="45" y="45" width="50" height="50" as="geometry"/>
                </mxCell>
                <mxCell id="8" value="" style="rounded=0;whiteSpace=wrap;html=1;" vertex="1" parent="1">
                    <mxGeometry x="160" y="55" width="370" height="30" as="geometry"/>
                </mxCell>
                <mxCell id="9" value="connexion" style="rounded=0;whiteSpace=wrap;html=1;" vertex="1" parent="1">
                    <mxGeometry x="580" y="55" width="70" height="30" as="geometry"/>
                </mxCell>
                <mxCell id="10" value="" style="whiteSpace=wrap;html=1;aspect=fixed;" vertex="1" parent="1">
                    <mxGeometry x="60" y="120" width="140" height="140" as="geometry"/>
                </mxCell>
                <mxCell id="11" value="" style="whiteSpace=wrap;html=1;aspect=fixed;" vertex="1" parent="1">
                    <mxGeometry x="210" y="280" width="140" height="140" as="geometry"/>
                </mxCell>
                <mxCell id="12" value="" style="whiteSpace=wrap;html=1;aspect=fixed;" vertex="1" parent="1">
                    <mxGeometry x="60" y="280" width="140" height="140" as="geometry"/>
                </mxCell>
                <mxCell id="13" value="" style="whiteSpace=wrap;html=1;aspect=fixed;" vertex="1" parent="1">
                    <mxGeometry x="210" y="120" width="140" height="140" as="geometry"/>
                </mxCell>
                <mxCell id="14" value="" style="whiteSpace=wrap;html=1;aspect=fixed;" vertex="1" parent="1">
                    <mxGeometry x="370" y="120" width="140" height="140" as="geometry"/>
                </mxCell>
                <mxCell id="15" value="" style="whiteSpace=wrap;html=1;aspect=fixed;" vertex="1" parent="1">
                    <mxGeometry x="540" y="120" width="140" height="140" as="geometry"/>
                </mxCell>
                <mxCell id="16" value="" style="whiteSpace=wrap;html=1;aspect=fixed;" vertex="1" parent="1">
                    <mxGeometry x="370" y="280" width="140" height="140" as="geometry"/>
                </mxCell>
                <mxCell id="17" value="" style="whiteSpace=wrap;html=1;aspect=fixed;" vertex="1" parent="1">
                    <mxGeometry x="540" y="280" width="140" height="140" as="geometry"/>
                </mxCell>
                <mxCell id="19" value="img" style="rounded=0;whiteSpace=wrap;html=1;" vertex="1" parent="1">
                    <mxGeometry x="60" y="120" width="140" height="90" as="geometry"/>
                </mxCell>
                <mxCell id="20" value="description" style="rounded=0;whiteSpace=wrap;html=1;" vertex="1" parent="1">
                    <mxGeometry x="60" y="210" width="140" height="50" as="geometry"/>
                </mxCell>
                <mxCell id="21" value="img" style="rounded=0;whiteSpace=wrap;html=1;" vertex="1" parent="1">
                    <mxGeometry x="210" y="120" width="140" height="90" as="geometry"/>
                </mxCell>
                <mxCell id="22" value="img" style="rounded=0;whiteSpace=wrap;html=1;" vertex="1" parent="1">
                    <mxGeometry x="370" y="120" width="140" height="90" as="geometry"/>
                </mxCell>
                <mxCell id="23" value="img" style="rounded=0;whiteSpace=wrap;html=1;" vertex="1" parent="1">
                    <mxGeometry x="540" y="120" width="140" height="90" as="geometry"/>
                </mxCell>
                <mxCell id="24" value="description" style="rounded=0;whiteSpace=wrap;html=1;" vertex="1" parent="1">
                    <mxGeometry x="370" y="210" width="140" height="50" as="geometry"/>
                </mxCell>
                <mxCell id="25" value="description" style="rounded=0;whiteSpace=wrap;html=1;" vertex="1" parent="1">
                    <mxGeometry x="210" y="210" width="140" height="50" as="geometry"/>
                </mxCell>
                <mxCell id="26" value="description" style="rounded=0;whiteSpace=wrap;html=1;" vertex="1" parent="1">
                    <mxGeometry x="540" y="210" width="140" height="50" as="geometry"/>
                </mxCell>
                <mxCell id="27" value="img" style="rounded=0;whiteSpace=wrap;html=1;" vertex="1" parent="1">
                    <mxGeometry x="540" y="280" width="140" height="90" as="geometry"/>
                </mxCell>
                <mxCell id="28" value="img" style="rounded=0;whiteSpace=wrap;html=1;" vertex="1" parent="1">
                    <mxGeometry x="370" y="280" width="140" height="90" as="geometry"/>
                </mxCell>
                <mxCell id="29" value="img" style="rounded=0;whiteSpace=wrap;html=1;" vertex="1" parent="1">
                    <mxGeometry x="210" y="280" width="140" height="90" as="geometry"/>
                </mxCell>
                <mxCell id="30" value="img" style="rounded=0;whiteSpace=wrap;html=1;" vertex="1" parent="1">
                    <mxGeometry x="60" y="280" width="140" height="90" as="geometry"/>
                </mxCell>
                <mxCell id="31" value="description" style="rounded=0;whiteSpace=wrap;html=1;" vertex="1" parent="1">
                    <mxGeometry x="540" y="370" width="140" height="50" as="geometry"/>
                </mxCell>
                <mxCell id="32" value="description" style="rounded=0;whiteSpace=wrap;html=1;" vertex="1" parent="1">
                    <mxGeometry x="370" y="370" width="140" height="50" as="geometry"/>
                </mxCell>
                <mxCell id="33" value="description" style="rounded=0;whiteSpace=wrap;html=1;" vertex="1" parent="1">
                    <mxGeometry x="210" y="370" width="140" height="50" as="geometry"/>
                </mxCell>
                <mxCell id="34" value="description" style="rounded=0;whiteSpace=wrap;html=1;" vertex="1" parent="1">
                    <mxGeometry x="60" y="370" width="140" height="50" as="geometry"/>
                </mxCell>
            </root>
        </mxGraphModel>
    </diagram>
    <diagram id="qgK45kgJCffX3YjcEa1z" name="Mobile">
        <mxGraphModel dx="603" dy="114" grid="1" gridSize="10" guides="1" tooltips="1" connect="1" arrows="1" fold="1" page="1" pageScale="1" pageWidth="827" pageHeight="1169" math="0" shadow="0">
            <root>
                <mxCell id="0"/>
                <mxCell id="1" parent="0"/>
                <mxCell id="L6ZmkEAp-DjxylpgQZ5--2" value="" style="rounded=0;whiteSpace=wrap;html=1;" vertex="1" parent="1">
                    <mxGeometry x="200" y="40" width="280" height="400" as="geometry"/>
                </mxCell>
                <mxCell id="L6ZmkEAp-DjxylpgQZ5--3" value="" style="rounded=0;whiteSpace=wrap;html=1;" vertex="1" parent="1">
                    <mxGeometry x="200" y="40" width="280" height="60" as="geometry"/>
                </mxCell>
                <mxCell id="L6ZmkEAp-DjxylpgQZ5--4" value="App-mobile" style="text;html=1;strokeColor=none;fillColor=none;align=center;verticalAlign=middle;whiteSpace=wrap;rounded=0;" vertex="1" parent="1">
                    <mxGeometry x="190" y="20" width="90" height="30" as="geometry"/>
                </mxCell>
                <mxCell id="L6ZmkEAp-DjxylpgQZ5--5" value="logo" style="whiteSpace=wrap;html=1;aspect=fixed;" vertex="1" parent="1">
                    <mxGeometry x="215" y="50" width="40" height="40" as="geometry"/>
                </mxCell>
                <mxCell id="L6ZmkEAp-DjxylpgQZ5--6" value="" style="endArrow=none;html=1;" edge="1" parent="1">
                    <mxGeometry width="50" height="50" relative="1" as="geometry">
                        <mxPoint x="469" y="63" as="sourcePoint"/>
                        <mxPoint x="439" y="63" as="targetPoint"/>
                    </mxGeometry>
                </mxCell>
                <mxCell id="L6ZmkEAp-DjxylpgQZ5--7" value="" style="endArrow=none;html=1;" edge="1" parent="1">
                    <mxGeometry width="50" height="50" relative="1" as="geometry">
                        <mxPoint x="470" y="70" as="sourcePoint"/>
                        <mxPoint x="440" y="70" as="targetPoint"/>
                    </mxGeometry>
                </mxCell>
                <mxCell id="L6ZmkEAp-DjxylpgQZ5--8" value="" style="endArrow=none;html=1;" edge="1" parent="1">
                    <mxGeometry width="50" height="50" relative="1" as="geometry">
                        <mxPoint x="469" y="77" as="sourcePoint"/>
                        <mxPoint x="439" y="77" as="targetPoint"/>
                    </mxGeometry>
                </mxCell>
                <mxCell id="L6ZmkEAp-DjxylpgQZ5--10" value="" style="endArrow=none;html=1;" edge="1" parent="1">
                    <mxGeometry width="50" height="50" relative="1" as="geometry">
                        <mxPoint x="469" y="84" as="sourcePoint"/>
                        <mxPoint x="439" y="84" as="targetPoint"/>
                    </mxGeometry>
                </mxCell>
                <mxCell id="L6ZmkEAp-DjxylpgQZ5--11" value="connexion" style="rounded=0;whiteSpace=wrap;html=1;" vertex="1" parent="1">
                    <mxGeometry x="300" y="50" width="80" height="40" as="geometry"/>
                </mxCell>
                <mxCell id="L6ZmkEAp-DjxylpgQZ5--12" value="" style="whiteSpace=wrap;html=1;aspect=fixed;" vertex="1" parent="1">
                    <mxGeometry x="210" y="110" width="260" height="260" as="geometry"/>
                </mxCell>
                <mxCell id="L6ZmkEAp-DjxylpgQZ5--14" value="img&lt;br&gt;" style="rounded=0;whiteSpace=wrap;html=1;" vertex="1" parent="1">
                    <mxGeometry x="210" y="110" width="260" height="170" as="geometry"/>
                </mxCell>
                <mxCell id="L6ZmkEAp-DjxylpgQZ5--15" value="description" style="rounded=0;whiteSpace=wrap;html=1;" vertex="1" parent="1">
                    <mxGeometry x="210" y="280" width="260" height="90" as="geometry"/>
                </mxCell>
                <mxCell id="L6ZmkEAp-DjxylpgQZ5--16" value="Footer" style="rounded=0;whiteSpace=wrap;html=1;" vertex="1" parent="1">
                    <mxGeometry x="200" y="380" width="280" height="60" as="geometry"/>
                </mxCell>
            </root>
        </mxGraphModel>
    </diagram>
</mxfile>